PathFileType	4	(x/y/z)	S10_M20_T60
DataRate	CameraRate	NumFrames	NumMarkers	Units	OrigDataRate	OrigDataStartFrame	OrigNumFrames
240	240	10	51	mm	240	453	517
Frame#	Time	Sternum			R.Acromium			L.Acromium			Top.Head			R.ASIS			L.ASIS			R.PSIS			L.PSIS			R.Great.Tro			L.Great.Tro			R.Iliac.Crest			L.Iliac.Crest			V.Sacral			R.Thigh.Upper.Post			R.Thigh.Lower.Ant			R.Thigh.Lower.Post			R.Thigh.Upper.Ant			R.Knee.Lat			R.Knee.Med			R.Shank.Upper.Post			R.Shank.Lower.Ant			R.Shank.Lower.Post			R.Shank.Upper.Ant			R.Ankle.Lat			R.Ankle.Med			R.Heel.Upper			R.Heel.Med			R.Heel.Lat			R.Toe.Lat			R.Toe.Med			R.Toe.Tip			L.Thigh.Upper.Post			L.Thigh.Lower.Ant			L.Thigh.Lower.Post			L.Thigh.Upper.Ant			L.Knee.Lat			L.Knee.Med			L.Shank.Upper.Post			L.Shank.Lower.Ant			L.Shank.Lower.Post			L.Shank.Upper.Ant			L.Ankle.Lat			L.Ankle.Med			L.Heel.Upper			L.Heel.Med			L.Heel.Lat			L.Toe.Lat			L.Toe.Med			L.Toe.Tip			Cervical.Spine			Back			
		X1	Y1	Z1	X2	Y2	Z2	X3	Y3	Z3	X4	Y4	Z4	X5	Y5	Z5	X6	Y6	Z6	X7	Y7	Z7	X8	Y8	Z8	X9	Y9	Z9	X10	Y10	Z10	X11	Y11	Z11	X12	Y12	Z12	X13	Y13	Z13	X14	Y14	Z14	X15	Y15	Z15	X16	Y16	Z16	X17	Y17	Z17	X18	Y18	Z18	X19	Y19	Z19	X20	Y20	Z20	X21	Y21	Z21	X22	Y22	Z22	X23	Y23	Z23	X24	Y24	Z24	X25	Y25	Z25	X26	Y26	Z26	X27	Y27	Z27	X28	Y28	Z28	X29	Y29	Z29	X30	Y30	Z30	X31	Y31	Z31	X32	Y32	Z32	X33	Y33	Z33	X34	Y34	Z34	X35	Y35	Z35	X36	Y36	Z36	X37	Y37	Z37	X38	Y38	Z38	X39	Y39	Z39	X40	Y40	Z40	X41	Y41	Z41	X42	Y42	Z42	X43	Y43	Z43	X44	Y44	Z44	X45	Y45	Z45	X46	Y46	Z46	X47	Y47	Z47	X48	Y48	Z48	X49	Y49	Z49	X50	Y50	Z50	X51	Y51	Z51	

453	1.8833	1695.9	1268.6	306.82	1551	1419.7	450.88	1601.2	1452.6	147.66	1536.1	1735.8	321.05	1645.9	999.41	398.29	1638.9	1013.2	170.26	1442.3	1018.4	321.64	1443.7	1027.2	239.36	1585.5	921.85	474.58	1566	952.84	113.78	1551.3	1079.8	446.57	1575.3	1089.3	148.04	1419.4	989.4	283.14	1679.7	731.78	479.93	1761.4	685.35	439.29	1714	648.92	473.77	1727.2	770.08	440.37	1764.5	532.63	436.22	1762.5	530.42	307.18	1761.7	301.57	442.79	1843.6	261.81	438.09	1786.2	231.19	441.16	1823.9	336.55	440.85	1842.7	128.18	430.02	1857.8	141.98	352.64	1809.4	63.718	376.69	1829.9	41.023	350.31	1816.7	42.027	411.07	1975.3	86.19	475.83	2010.7	105.3	373.33	2053.1	141.25	420.68	1466.8	695.27	121.54	1515.2	598.58	148.77	1442.4	605.32	143.53	1545.9	683.43	127.18	1455.9	509.7	156.3	1463.2	507.51	284.13	1346.5	311.16	161.71	1392	212.32	186.24	1332.9	236.16	175.83	1406.2	286.86	171.78	1334.1	110.1	195.54	1345.6	126.34	285.32	1260.4	83.576	242.21	1268.3	50.184	273.62	1264.8	54.648	207.71	1441.8	40.854	175.5	1467.1	42.64	283.65	1524.4	51.577	238.54	1496.8	1486.4	298.06	1413.2	1278.3	273.21
454	1.8875	1701.1	1267.3	307.28	1556.3	1418.6	451.34	1606.8	1451.6	148.24	1541.4	1734.6	321.75	1651.3	998.29	398.41	1644.1	1012.2	170.48	1447.6	1017.3	321.97	1448.9	1026.2	239.71	1590.8	920.6	474.75	1570.9	951.95	113.92	1556.6	1078.6	446.8	1580.5	1088.3	148.38	1424.6	988.34	283.5	1684.2	730.02	479.95	1766	683.54	439.5	1718.3	647.09	473.56	1732	768.36	440.77	1769.5	531.41	435.87	1767.5	528.96	306.77	1771.6	300.42	442.87	1854.5	262.51	438	1797.6	230.56	441.27	1833.1	336.8	440.7	1856.5	128.78	430.15	1871.2	142.81	352.76	1824.5	63.427	376.99	1845.5	41.194	350.58	1832.4	41.992	411.34	1990.1	89.781	475.84	2024.9	109.56	373.2	2066.6	146.41	420.45	1469.9	695.2	121.45	1517.8	598.15	148.56	1445	605.42	143.44	1549	682.82	126.99	1457.9	509.63	156.14	1465.5	507.34	284	1347.5	311.53	161.73	1392.8	212.5	186.16	1333.7	236.58	175.89	1407.2	286.99	171.69	1334.4	110.4	195.64	1346	126.66	285.38	1260.6	84.036	242.35	1268.4	50.596	273.75	1264.9	55.125	207.83	1441.8	40.825	175.48	1467.1	42.55	283.6	1524.5	51.375	238.49	1502.2	1485.3	298.47	1418.5	1277.3	273.51
455	1.8917	1706.4	1266.1	307.75	1561.5	1417.5	451.8	1612.3	1450.4	148.82	1546.6	1733.4	322.47	1656.7	997.15	398.52	1649.3	1011.1	170.7	1452.9	1016.2	322.31	1454.1	1025.1	240.08	1596.2	919.34	474.91	1575.7	951.06	114.06	1562	1077.4	447.03	1585.7	1087.3	148.71	1429.9	987.26	283.85	1688.7	728.26	479.99	1770.6	681.68	439.71	1722.6	645.24	473.39	1736.9	766.6	441.16	1774.5	530.18	435.56	1772.4	527.45	306.4	1781.5	299.34	442.95	1865.1	263.25	437.87	1809	230.02	441.37	1842.2	337.07	440.51	1870	129.48	430.22	1884.3	143.73	352.81	1839.3	63.281	377.21	1860.8	41.509	350.78	1847.8	42.104	411.53	2004.6	93.423	475.76	2038.8	113.85	372.99	2079.8	151.56	420.16	1473.1	695.12	121.36	1520.5	597.72	148.36	1447.6	605.51	143.37	1552.1	682.21	126.8	1460	509.56	156	1467.8	507.16	283.88	1348.6	311.92	161.76	1393.5	212.69	186.08	1334.5	237.01	175.96	1408.3	287.13	171.61	1334.8	110.72	195.73	1346.5	127	285.44	1260.9	84.534	242.49	1268.6	51.054	273.87	1265	55.634	207.95	1441.8	40.797	175.45	1467.1	42.472	283.54	1524.6	51.169	238.44	1507.7	1484.3	298.89	1423.7	1276.3	273.84
456	1.8958	1711.7	1264.8	308.22	1566.8	1416.4	452.29	1617.9	1449.3	149.41	1551.9	1732.1	323.19	1662.1	995.98	398.63	1654.5	1010.1	170.91	1458.3	1015	322.65	1459.3	1024.1	240.45	1601.6	918.07	475.08	1580.6	950.14	114.19	1567.3	1076.2	447.26	1590.9	1086.3	149.04	1435.2	986.17	284.22	1693.4	726.5	480.05	1775.2	679.8	439.93	1727	643.39	473.26	1741.8	764.83	441.54	1779.5	528.94	435.29	1777.3	525.91	306.08	1791.2	298.34	443.03	1875.6	264.02	437.7	1820.1	229.57	441.45	1851.1	337.34	440.3	1883.2	130.26	430.22	1897.2	144.73	352.8	1853.8	63.268	377.35	1875.7	41.951	350.9	1862.8	42.344	411.65	2018.7	97.083	475.61	2052.3	118.16	372.71	2092.6	156.67	419.79	1476.3	695.03	121.29	1523.2	597.29	148.16	1450.3	605.59	143.32	1555.3	681.59	126.61	1462.1	509.49	155.87	1470.2	506.97	283.78	1349.8	312.31	161.79	1394.3	212.89	186	1335.4	237.45	176.04	1409.5	287.26	171.54	1335.2	111.05	195.82	1347	127.35	285.5	1261.1	85.072	242.61	1268.7	51.559	273.99	1265.2	56.177	208.05	1441.9	40.769	175.42	1467.2	42.406	283.48	1524.8	50.958	238.39	1513.2	1483.2	299.34	1429	1275.2	274.2
457	1.9	1717	1263.5	308.69	1572.2	1415.2	452.79	1623.5	1448.1	150	1557.3	1730.9	323.93	1667.6	994.8	398.73	1659.7	1009	171.12	1463.6	1013.8	323	1464.6	1023	240.84	1607	916.8	475.24	1585.4	949.22	114.31	1572.7	1074.9	447.49	1596.1	1085.3	149.36	1440.5	985.06	284.59	1698.1	724.77	480.14	1779.9	677.9	440.15	1731.4	641.55	473.17	1746.8	763.04	441.9	1784.5	527.72	435.05	1782.1	524.34	305.79	1800.8	297.39	443.13	1885.9	264.8	437.51	1831	229.18	441.51	1860	337.61	440.07	1896.1	131.11	430.17	1909.7	145.79	352.73	1868	63.369	377.42	1890.3	42.502	350.94	1877.6	42.695	411.69	2032.4	100.73	475.37	2065.4	122.44	372.34	2105.1	161.71	419.34	1479.5	694.94	121.24	1526	596.85	147.96	1453	605.67	143.28	1558.5	680.97	126.43	1464.3	509.41	155.75	1472.7	506.77	283.69	1351	312.72	161.83	1395.1	213.09	185.93	1336.3	237.91	176.14	1410.6	287.39	171.47	1335.6	111.41	195.9	1347.5	127.72	285.56	1261.4	85.65	242.72	1268.9	52.112	274.1	1265.3	56.754	208.16	1442	40.741	175.39	1467.2	42.355	283.42	1524.9	50.744	238.33	1518.7	1482	299.8	1434.3	1274.2	274.57
458	1.9042	1722.3	1262.2	309.17	1577.6	1414	453.3	1629.1	1446.9	150.59	1562.6	1729.6	324.67	1673.1	993.6	398.82	1665	1008	171.31	1469	1012.6	323.35	1469.9	1021.9	241.24	1612.5	915.53	475.4	1590.3	948.28	114.43	1578.2	1073.7	447.74	1601.4	1084.3	149.67	1445.8	983.93	284.97	1702.9	723.06	480.25	1784.7	676	440.36	1735.9	639.74	473.12	1751.8	761.26	442.24	1789.6	526.5	434.85	1786.8	522.75	305.54	1810.2	296.5	443.22	1896.1	265.58	437.28	1841.8	228.87	441.55	1868.7	337.87	439.81	1908.7	132	430.06	1921.9	146.9	352.61	1881.8	63.568	377.43	1904.5	43.139	350.9	1891.9	43.134	411.67	2045.8	104.33	475.04	2078.1	126.66	371.88	2117.1	166.63	418.81	1482.9	694.83	121.2	1529	596.41	147.77	1455.9	605.72	143.27	1561.8	680.34	126.26	1466.6	509.33	155.65	1475.2	506.56	283.61	1352.2	313.14	161.89	1396	213.3	185.87	1337.3	238.37	176.25	1411.9	287.52	171.41	1336.1	111.79	195.98	1348	128.11	285.61	1261.7	86.269	242.83	1269.1	52.713	274.21	1265.5	57.367	208.25	1442	40.714	175.35	1467.3	42.318	283.36	1525	50.526	238.28	1524.2	1480.9	300.27	1439.7	1273.1	274.97
459	1.9083	1727.7	1260.9	309.64	1583	1412.7	453.83	1634.7	1445.7	151.19	1567.9	1728.3	325.42	1678.6	992.39	398.91	1670.2	1006.9	171.5	1474.4	1011.3	323.71	1475.2	1020.8	241.65	1618.1	914.26	475.56	1595.2	947.32	114.55	1583.6	1072.4	447.98	1606.6	1083.2	149.98	1451.1	982.8	285.35	1707.8	721.38	480.38	1789.5	674.11	440.57	1740.5	637.95	473.12	1756.9	759.49	442.54	1794.8	525.31	434.69	1791.5	521.16	305.35	1819.5	295.67	443.32	1906	266.36	437.04	1852.4	228.6	441.57	1877.3	338.12	439.55	1921	132.93	429.91	1933.8	148.02	352.43	1895.2	63.843	377.37	1918.3	43.842	350.8	1905.9	43.642	411.58	2058.7	107.85	474.62	2090.4	130.79	371.32	2128.8	171.42	418.19	1486.2	694.71	121.17	1532	595.97	147.58	1458.7	605.76	143.27	1565.2	679.7	126.09	1469	509.24	155.56	1477.9	506.34	283.55	1353.6	313.58	161.95	1396.8	213.52	185.81	1338.3	238.86	176.38	1413.1	287.66	171.36	1336.5	112.19	196.05	1348.6	128.51	285.66	1262	86.929	242.92	1269.3	53.363	274.32	1265.7	58.017	208.34	1442.1	40.687	175.31	1467.5	42.298	283.3	1525.1	50.305	238.22	1529.7	1479.8	300.77	1445	1272	275.39
460	1.9125	1733.1	1259.5	310.12	1588.4	1411.5	454.38	1640.3	1444.5	151.79	1573.3	1727	326.18	1684.1	991.16	398.98	1675.5	1005.8	171.67	1479.8	1010.1	324.08	1480.6	1019.7	242.08	1623.7	913	475.72	1600.1	946.36	114.67	1589.1	1071.2	448.23	1611.7	1082.1	150.28	1456.5	981.66	285.75	1712.8	719.75	480.53	1794.4	672.24	440.76	1745.2	636.2	473.15	1762.1	757.75	442.82	1800	524.13	434.55	1796.2	519.57	305.19	1828.7	294.89	443.42	1915.7	267.11	436.77	1862.7	228.38	441.56	1885.8	338.35	439.27	1933	133.86	429.7	1945.3	149.14	352.21	1908.3	64.174	377.26	1931.7	44.587	350.64	1919.4	44.194	411.44	2071.3	111.27	474.12	2102.3	134.8	370.67	2140.1	176.03	417.48	1489.6	694.58	121.16	1535	595.52	147.39	1461.7	605.79	143.3	1568.6	679.06	125.92	1471.4	509.14	155.48	1480.7	506.09	283.5	1354.9	314.03	162.02	1397.8	213.74	185.76	1339.4	239.36	176.51	1414.4	287.79	171.32	1337.1	112.61	196.13	1349.2	128.94	285.71	1262.4	87.631	243	1269.5	54.062	274.41	1265.9	58.704	208.42	1442.1	40.66	175.26	1467.6	42.295	283.24	1525.3	50.082	238.17	1535.3	1478.6	301.28	1450.4	1270.9	275.83
461	1.9167	1738.5	1258.2	310.59	1593.9	1410.2	454.94	1645.9	1443.2	152.4	1578.7	1725.8	326.95	1689.6	989.93	399.05	1680.8	1004.7	171.83	1485.3	1008.9	324.46	1486	1018.6	242.53	1629.3	911.74	475.89	1605	945.39	114.79	1594.7	1069.9	448.49	1616.9	1081.1	150.57	1461.9	980.52	286.16	1717.9	718.18	480.7	1799.4	670.42	440.93	1750	634.51	473.22	1767.4	756.04	443.06	1805.3	522.98	434.46	1800.8	518	305.09	1837.7	294.14	443.51	1925.2	267.83	436.49	1872.8	228.19	441.53	1894.2	338.55	438.99	1944.6	134.78	429.46	1956.5	150.24	351.95	1920.9	64.538	377.11	1944.6	45.347	350.43	1932.6	44.769	411.25	2083.5	114.54	473.53	2113.7	138.65	369.93	2151.1	180.44	416.68	1493.1	694.43	121.17	1538.2	595.07	147.22	1464.7	605.8	143.34	1572	678.41	125.77	1474	509.03	155.43	1483.5	505.83	283.47	1356.4	314.49	162.1	1398.7	213.97	185.72	1340.5	239.87	176.67	1415.8	287.93	171.29	1337.6	113.05	196.19	1349.8	129.38	285.76	1262.7	88.376	243.07	1269.7	54.81	274.51	1266.1	59.43	208.5	1442.2	40.635	175.21	1467.8	42.307	283.18	1525.4	49.857	238.11	1540.8	1477.5	301.81	1455.8	1269.8	276.29
462	1.9208	1743.9	1256.8	311.07	1599.4	1408.9	455.51	1651.6	1442	153.01	1584.1	1724.5	327.72	1695.2	988.69	399.1	1686.1	1003.6	171.98	1490.7	1007.6	324.85	1491.4	1017.5	242.99	1635	910.49	476.06	1610	944.41	114.92	1600.2	1068.6	448.75	1622.1	1080	150.85	1467.3	979.37	286.58	1723.2	716.66	480.88	1804.5	668.64	441.07	1755	632.88	473.32	1772.8	754.39	443.26	1810.7	521.86	434.39	1805.5	516.46	305.02	1846.5	293.44	443.59	1934.4	268.49	436.2	1882.6	228.03	441.47	1902.4	338.72	438.71	1955.8	135.68	429.18	1967.3	151.29	351.66	1933.1	64.913	376.92	1957	46.098	350.18	1945.2	45.344	411.02	2095.3	117.65	472.86	2124.7	142.31	369.1	2161.6	184.6	415.79	1496.6	694.27	121.2	1541.5	594.61	147.05	1467.8	605.78	143.41	1575.5	677.76	125.62	1476.6	508.91	155.4	1486.5	505.55	283.45	1357.9	314.97	162.19	1399.7	214.21	185.69	1341.7	240.4	176.84	1417.2	288.07	171.26	1338.2	113.52	196.25	1350.4	129.84	285.81	1263.1	89.165	243.14	1269.9	55.607	274.59	1266.3	60.195	208.57	1442.3	40.61	175.15	1468	42.336	283.13	1525.6	49.629	238.06	1546.4	1476.4	302.37	1461.2	1268.7	276.77
